<svg width="369" height="540" viewBox="0 0 369 540" fill="none" xmlns="http://www.w3.org/2000/svg">
<g style="mix-blend-mode:plus-lighter" opacity="0.2">
<path fill-rule="evenodd" clip-rule="evenodd" d="M274.257 457.76L274.257 539.538L192.478 539.538L192.478 530.776C192.478 490.45 225.169 457.76 265.495 457.76L274.257 457.76Z" fill="#A3A3A3" fill-opacity="0.2"/>
<path fill-rule="evenodd" clip-rule="evenodd" d="M274.257 449.781L274.257 368.003L192.478 368.003L192.478 376.765C192.478 417.091 225.169 449.781 265.495 449.781L274.257 449.781Z" fill="#A3A3A3" fill-opacity="0.2"/>
<path fill-rule="evenodd" clip-rule="evenodd" d="M192.478 356.035L192.478 275.254L274.257 275.254L274.257 283.909C274.257 323.743 241.566 356.035 201.24 356.035L192.478 356.035Z" fill="#A3A3A3" fill-opacity="0.2"/>
<path fill-rule="evenodd" clip-rule="evenodd" d="M192.478 183.503L192.478 265.281L274.257 265.281L274.257 256.519C274.257 216.193 241.566 183.503 201.24 183.503L192.478 183.503Z" fill="#A3A3A3" fill-opacity="0.2"/>
<path fill-rule="evenodd" clip-rule="evenodd" d="M369 183.503L369 265.281L287.222 265.281L287.222 256.519C287.222 216.193 319.912 183.503 360.238 183.503L369 183.503Z" fill="#A3A3A3" fill-opacity="0.2"/>
<path fill-rule="evenodd" clip-rule="evenodd" d="M287.222 355.038L287.222 273.259L369 273.259L369 282.021C369 322.347 336.309 355.038 295.984 355.038L287.222 355.038Z" fill="#A3A3A3" fill-opacity="0.2"/>
<path fill-rule="evenodd" clip-rule="evenodd" d="M287.222 447.786L287.222 367.005L369 367.005L369 375.661C369 415.495 336.309 447.787 295.984 447.786L287.222 447.786Z" fill="#A3A3A3" fill-opacity="0.2"/>
<path d="M302.126 458.014C300.773 457.902 299.41 457.826 298.037 457.788L297.968 460.287C297.309 460.269 296.647 460.26 295.984 460.26L293.793 460.26L293.793 457.76L289.722 457.76L289.722 459.804L289.412 459.804L289.412 460.26L287.222 460.26L287.222 463.893L289.722 463.893L289.722 467.982L287.222 467.982L287.222 472.071L289.722 472.071L289.722 476.16L287.222 476.16L287.222 480.249L289.722 480.249L289.722 484.337L287.222 484.337L287.222 488.426L289.722 488.426L289.722 492.515L287.222 492.515L287.222 496.604L289.722 496.604L289.722 500.693L287.222 500.693L287.222 504.782L289.722 504.782L289.722 508.871L287.222 508.871L287.222 512.96L289.722 512.96L289.722 517.049L287.222 517.049L287.222 521.138L289.722 521.138L289.722 525.227L287.222 525.227L287.222 529.316L289.722 529.316L289.722 533.405L287.222 533.405L287.222 537.038L289.266 537.038L289.266 537.493L289.722 537.493L289.722 539.538L293.355 539.538L293.355 537.038L297.444 537.038L297.444 539.538L301.533 539.538L301.533 537.038L305.622 537.038L305.622 539.538L309.711 539.538L309.711 537.038L313.8 537.038L313.8 539.538L317.889 539.538L317.889 537.038L321.977 537.038L321.977 539.538L326.066 539.538L326.066 537.038L330.155 537.038L330.155 539.538L334.244 539.538L334.244 537.038L338.333 537.038L338.333 539.538L342.422 539.538L342.422 537.038L346.511 537.038L346.511 539.538L350.6 539.538L350.6 537.038L354.689 537.038L354.689 539.538L358.778 539.538L358.778 537.038L362.867 537.038L362.867 539.538L366.5 539.538L366.5 537.347L366.956 537.347L366.956 537.038L369 537.038L369 532.966L366.5 532.966L366.5 530.776C366.5 530.112 366.491 529.451 366.473 528.792L368.972 528.723C368.934 527.35 368.858 525.986 368.745 524.633L366.254 524.841C366.144 523.52 365.997 522.209 365.816 520.91L368.291 520.564C368.101 519.205 367.874 517.859 367.61 516.526L365.158 517.011C364.901 515.713 364.608 514.427 364.281 513.156L366.703 512.533C366.361 511.206 365.983 509.893 365.57 508.595L363.188 509.354C362.787 508.094 362.351 506.849 361.882 505.621L364.217 504.728C363.729 503.45 363.205 502.188 362.648 500.945L360.367 501.967C359.826 500.761 359.253 499.574 358.648 498.405L360.868 497.256C360.239 496.041 359.578 494.846 358.884 493.673L356.732 494.945C356.06 493.808 355.357 492.692 354.624 491.598L356.701 490.207C355.941 489.071 355.15 487.958 354.328 486.868L352.332 488.373C351.538 487.319 350.714 486.288 349.863 485.281L351.772 483.667C350.891 482.624 349.98 481.606 349.042 480.614L347.226 482.332C346.319 481.373 345.386 480.44 344.428 479.534L346.146 477.718C345.154 476.779 344.136 475.869 343.092 474.987L341.478 476.896C340.472 476.045 339.441 475.222 338.387 474.427L339.891 472.431C338.802 471.61 337.688 470.818 336.553 470.058L335.162 472.135C334.067 471.403 332.951 470.7 331.815 470.028L333.087 467.876C331.913 467.182 330.718 466.52 329.504 465.891L328.355 468.112C327.186 467.507 325.998 466.933 324.792 466.393L325.815 464.112C324.572 463.554 323.31 463.031 322.031 462.542L321.139 464.878C319.911 464.409 318.666 463.973 317.406 463.572L318.164 461.189C316.867 460.776 315.554 460.398 314.226 460.057L313.604 462.478C312.332 462.151 311.047 461.859 309.748 461.602L310.234 459.149C308.9 458.886 307.554 458.658 306.196 458.468L305.849 460.944C304.55 460.762 303.24 460.616 301.919 460.506L302.126 458.014Z" stroke="#A3A3A3" stroke-opacity="0.3" stroke-width="5" stroke-dasharray="4 4"/>
<path d="M66.874 274.511C68.2268 274.399 69.5902 274.323 70.963 274.285L71.032 276.784C71.6912 276.766 72.3527 276.757 73.0164 276.757L75.2069 276.757L75.2069 274.257L79.2784 274.257L79.2784 276.301L79.5879 276.301L79.5879 276.757L81.7784 276.757L81.7784 280.39L79.2784 280.39L79.2784 284.479L81.7784 284.479L81.7784 288.568L79.2784 288.568L79.2784 292.657L81.7784 292.657L81.7784 296.746L79.2784 296.746L79.2784 300.835L81.7784 300.835L81.7784 304.924L79.2784 304.924L79.2784 309.013L81.7784 309.013L81.7784 313.101L79.2784 313.101L79.2784 317.19L81.7784 317.19L81.7784 321.279L79.2784 321.279L79.2784 325.368L81.7784 325.368L81.7784 329.457L79.2784 329.457L79.2784 333.546L81.7784 333.546L81.7784 337.635L79.2784 337.635L79.2784 341.724L81.7784 341.724L81.7784 345.813L79.2784 345.813L79.2784 349.902L81.7784 349.902L81.7784 353.535L79.7339 353.535L79.7339 353.991L79.2784 353.991L79.2784 356.035L75.645 356.035L75.645 353.535L71.5561 353.535L71.5561 356.035L67.4672 356.035L67.4672 353.535L63.3783 353.535L63.3783 356.035L59.2893 356.035L59.2893 353.535L55.2004 353.535L55.2004 356.035L51.1115 356.035L51.1115 353.535L47.0226 353.535L47.0226 356.035L42.9337 356.035L42.9337 353.535L38.8447 353.535L38.8447 356.035L34.7558 356.035L34.7558 353.535L30.6669 353.535L30.6669 356.035L26.578 356.035L26.578 353.535L22.4891 353.535L22.4891 356.035L18.4001 356.035L18.4001 353.535L14.3112 353.535L14.3112 356.035L10.2223 356.035L10.2223 353.535L6.13338 353.535L6.13338 356.035L2.5 356.035L2.5 353.845L2.04446 353.845L2.04446 353.535L4.16403e-06 353.535L4.342e-06 349.464L2.5 349.464L2.5 347.273C2.5 346.609 2.50917 345.948 2.52737 345.289L0.0283172 345.22C0.0662277 343.847 0.142026 342.484 0.254712 341.131L2.74608 341.338C2.85612 340.017 3.00256 338.706 3.18437 337.407L0.708501 337.061C0.898587 335.703 1.12605 334.356 1.3898 333.023L3.84227 333.508C4.09911 332.21 4.39158 330.925 4.71863 329.653L2.29744 329.03C2.63891 327.703 3.01676 326.39 3.42989 325.093L5.81201 325.851C6.21335 324.591 6.64918 323.346 7.11838 322.118L4.78294 321.226C5.27144 319.947 5.79487 318.685 6.35205 317.442L8.63341 318.464C9.17376 317.259 9.747 316.071 10.352 314.902L8.13185 313.753C8.7606 312.538 9.42247 311.344 10.1162 310.17L12.2683 311.442C12.9402 310.306 13.6431 309.189 14.3759 308.095L12.2985 306.704C13.0589 305.568 13.8503 304.455 14.6716 303.365L16.668 304.87C17.4624 303.816 18.2858 302.785 19.1369 301.778L17.2276 300.164C18.1094 299.121 19.02 298.103 19.958 297.111L21.7744 298.829C22.6808 297.87 23.6138 296.937 24.5722 296.031L22.8544 294.215C23.8463 293.277 24.8644 292.366 25.9077 291.484L27.5216 293.394C28.5284 292.542 29.5595 291.719 30.6135 290.925L29.1087 288.928C30.1983 288.107 31.3115 287.316 32.4474 286.555L33.8382 288.633C34.9327 287.9 36.0488 287.197 37.1854 286.525L35.9132 284.373C37.0868 283.679 38.2815 283.017 39.4961 282.389L40.6454 284.609C41.8142 284.004 43.0019 283.43 44.2076 282.89L43.1852 280.609C44.4284 280.052 45.6901 279.528 46.969 279.04L47.861 281.375C49.0894 280.906 50.3343 280.47 51.5945 280.069L50.8358 277.687C52.1331 277.273 53.446 276.896 54.7736 276.554L55.3963 278.975C56.6678 278.648 57.9533 278.356 59.2516 278.099L58.7664 275.647C60.0996 275.383 61.4459 275.155 62.8041 274.965L63.1506 277.441C64.4497 277.259 65.7604 277.113 67.0815 277.003L66.874 274.511Z" stroke="#A3A3A3" stroke-opacity="0.3" stroke-width="5" stroke-dasharray="4 4"/>
<path fill-rule="evenodd" clip-rule="evenodd" d="M81.7784 266.278L81.7784 184.5L1.1204e-05 184.5L1.0821e-05 193.262C9.05834e-06 233.588 32.6906 266.278 73.0164 266.278L81.7784 266.278Z" fill="#A3A3A3" fill-opacity="0.2"/>
<path fill-rule="evenodd" clip-rule="evenodd" d="M0 172.532L3.53105e-06 91.7514L81.7784 91.7514L81.7784 100.407C81.7784 140.241 49.0878 172.532 8.76197 172.532L0 172.532Z" fill="#A3A3A3" fill-opacity="0.2"/>
<path fill-rule="evenodd" clip-rule="evenodd" d="M0 0L-3.57465e-06 81.7784L81.7784 81.7784L81.7784 73.0164C81.7784 32.6906 49.0878 2.1457e-06 8.76197 3.82998e-07L0 0Z" fill="#A3A3A3" fill-opacity="0.2"/>
<path d="M161.617 0.254708C162.97 0.142023 164.333 0.0662228 165.706 0.0283156L165.734 1.02793C166.407 1.00935 167.082 1 167.76 1L169.95 1L169.95 -2.87248e-07L174.331 -9.57495e-08L174.331 1L175.522 1L175.522 2.04444L176.522 2.04444L176.522 6.13336L175.522 6.13336L175.522 10.2223L176.522 10.2223L176.522 14.3112L175.522 14.3112L175.522 18.4001L176.522 18.4001L176.522 22.489L175.522 22.489L175.522 26.578L176.522 26.578L176.522 30.6669L175.522 30.6669L175.522 34.7558L176.522 34.7558L176.522 38.8447L175.522 38.8447L175.522 42.9336L176.522 42.9336L176.522 47.0226L175.522 47.0226L175.522 51.1115L176.522 51.1115L176.522 55.2004L175.522 55.2004L175.522 59.2893L176.522 59.2893L176.522 63.3782L175.522 63.3782L175.522 67.4672L176.522 67.4672L176.522 71.5561L175.522 71.5561L175.522 75.645L176.522 75.645L176.522 79.7339L175.522 79.7339L175.522 80.7784L174.477 80.7784L174.477 81.7784L170.388 81.7784L170.388 80.7784L166.299 80.7784L166.299 81.7784L162.21 81.7784L162.21 80.7784L158.121 80.7784L158.121 81.7784L154.033 81.7784L154.033 80.7784L149.944 80.7784L149.944 81.7784L145.855 81.7784L145.855 80.7784L141.766 80.7784L141.766 81.7784L137.677 81.7784L137.677 80.7784L133.588 80.7784L133.588 81.7784L129.499 81.7784L129.499 80.7784L125.41 80.7784L125.41 81.7784L121.321 81.7784L121.321 80.7784L117.232 80.7784L117.232 81.7784L113.143 81.7784L113.143 80.7784L109.054 80.7784L109.054 81.7784L104.966 81.7784L104.966 80.7784L100.877 80.7784L100.877 81.7784L96.7877 81.7784L96.7877 80.7784L95.7432 80.7784L95.7432 79.5879L94.7432 79.5879L94.7432 75.2069L95.7432 75.2069L95.7432 73.0164C95.7432 72.3389 95.7526 71.6636 95.7712 70.9907L94.7715 70.9631C94.8095 69.5902 94.8853 68.2269 94.9979 66.874L95.9945 66.957C96.1068 65.6079 96.2564 64.2695 96.4421 62.9427L95.4517 62.8041C95.6418 61.4459 95.8693 60.0996 96.133 58.7664L97.114 58.9605C97.3763 57.6344 97.6751 56.3215 98.0091 55.0227L97.0407 54.7736C97.3821 53.446 97.76 52.1331 98.1731 50.8358L99.126 51.1393C99.5359 49.852 99.9811 48.5805 100.46 47.3258L99.5262 46.969C100.015 45.6901 100.538 44.4284 101.095 43.1852L102.008 43.5941C102.56 42.3627 103.145 41.1495 103.763 39.9558L102.875 39.4961C103.504 38.2815 104.166 37.0868 104.859 35.9132L105.72 36.4221C106.406 35.2613 107.124 34.1214 107.873 33.0037L107.042 32.4473C107.802 31.3115 108.594 30.1983 109.415 29.1087L110.213 29.7106C111.025 28.6343 111.865 27.5814 112.735 26.5532L111.971 25.9077C112.853 24.8644 113.763 23.8463 114.701 22.8544L115.428 23.5415C116.353 22.5628 117.306 21.6101 118.285 20.6846L117.598 19.958C118.589 19.02 119.608 18.1094 120.651 17.2276L121.296 17.9913C122.325 17.1222 123.378 16.2814 124.454 15.4701L123.852 14.6716C124.941 13.8503 126.055 13.0589 127.191 12.2985L127.747 13.1295C128.865 12.3811 130.005 11.6633 131.165 10.9771L130.656 10.1162C131.83 9.42246 133.025 8.7606 134.239 8.13184L134.699 9.01991C135.893 8.40199 137.106 7.81649 138.337 7.26459L137.928 6.35205C139.172 5.79487 140.433 5.27144 141.712 4.78294L142.069 5.71711C143.324 5.23786 144.595 4.79269 145.883 4.38273L145.579 3.42989C146.876 3.01676 148.189 2.6389 149.517 2.29743L149.766 3.26591C151.065 2.93186 152.378 2.63312 153.704 2.37078L153.51 1.3898C154.843 1.12605 156.189 0.898589 157.547 0.7085L157.686 1.69885C159.013 1.51316 160.351 1.36362 161.7 1.25126L161.617 0.254708Z" stroke="#A3A3A3" stroke-opacity="0.3" stroke-width="2" stroke-dasharray="4 4"/>
<path fill-rule="evenodd" clip-rule="evenodd" d="M94.7432 171.535L94.7432 89.7568L176.522 89.7568L176.522 98.5188C176.522 138.845 143.831 171.535 103.505 171.535L94.7432 171.535Z" fill="#A3A3A3" fill-opacity="0.2"/>
<path d="M14.9044 537.288C13.5515 537.401 12.1882 537.477 10.8153 537.515L10.7463 535.016C10.0872 535.034 9.42567 535.043 8.76197 535.043L6.57148 535.043L6.57148 537.543L2.5 537.543L2.5 535.499L2.19049 535.499L2.19049 535.043L1.09278e-07 535.043L2.68098e-07 531.41L2.5 531.41L2.5 527.321L4.4683e-07 527.321L6.25563e-07 523.232L2.5 523.232L2.5 519.143L8.04295e-07 519.143L9.83027e-07 515.054L2.5 515.054L2.5 510.965L1.16176e-06 510.965L1.34049e-06 506.876L2.5 506.876L2.5 502.787L1.51922e-06 502.787L1.69796e-06 498.698L2.5 498.698L2.5 494.609L1.87669e-06 494.609L2.05542e-06 490.521L2.5 490.521L2.5 486.432L2.23415e-06 486.432L2.41289e-06 482.343L2.5 482.343L2.5 478.254L2.59162e-06 478.254L2.77035e-06 474.165L2.5 474.165L2.5 470.076L2.94908e-06 470.076L3.12782e-06 465.987L2.5 465.987L2.5 461.898L3.30655e-06 461.898L3.46537e-06 458.265L2.04445 458.265L2.04445 457.809L2.5 457.809L2.5 455.765L6.13337 455.765L6.13337 458.265L10.2223 458.265L10.2223 455.765L14.3112 455.765L14.3112 458.265L18.4001 458.265L18.4001 455.765L22.489 455.765L22.489 458.265L26.578 458.265L26.578 455.765L30.6669 455.765L30.6669 458.265L34.7558 458.265L34.7558 455.765L38.8447 455.765L38.8447 458.265L42.9337 458.265L42.9337 455.765L47.0226 455.765L47.0226 458.265L51.1115 458.265L51.1115 455.765L55.2004 455.765L55.2004 458.265L59.2893 458.265L59.2893 455.765L63.3782 455.765L63.3782 458.265L67.4672 458.265L67.4672 455.765L71.5561 455.765L71.5561 458.265L75.645 458.265L75.645 455.765L79.2784 455.765L79.2784 457.955L79.7339 457.955L79.7339 458.265L81.7784 458.265L81.7784 462.336L79.2784 462.336L79.2784 464.527C79.2784 465.19 79.2692 465.852 79.251 466.511L81.7501 466.58C81.7122 467.953 81.6364 469.316 81.5237 470.669L79.0323 470.462C78.9223 471.783 78.7758 473.093 78.594 474.392L81.0699 474.739C80.8798 476.097 80.6523 477.443 80.3886 478.777L77.9361 478.292C77.6793 479.59 77.3868 480.875 77.0598 482.147L79.4809 482.77C79.1395 484.097 78.7616 485.41 78.3485 486.707L75.9664 485.949C75.565 487.209 75.1292 488.454 74.66 489.682L76.9954 490.574C76.5069 491.853 75.9835 493.115 75.4263 494.358L73.145 493.336C72.6046 494.541 72.0314 495.729 71.4264 496.898L73.6465 498.047C73.0178 499.262 72.3559 500.456 71.6621 501.63L69.51 500.358C68.8382 501.494 68.1352 502.61 67.4025 503.705L69.4799 505.096C68.7195 506.232 67.9281 507.345 67.1068 508.434L65.1104 506.93C64.3159 507.984 63.4926 509.015 62.6415 510.022L64.5508 511.635C63.669 512.679 62.7584 513.697 61.8203 514.689L60.004 512.971C59.0976 513.929 58.1646 514.862 57.2062 515.769L58.924 517.585C57.9321 518.523 56.9139 519.434 55.8707 520.316L54.2568 518.406C53.2499 519.257 52.2189 520.081 51.1649 520.875L52.6697 522.872C51.5801 523.693 50.4668 524.484 49.331 525.245L47.9402 523.167C46.8457 523.9 45.7295 524.603 44.5929 525.275L45.8651 527.427C44.6915 528.121 43.4968 528.782 42.2822 529.411L41.1329 527.191C39.9642 527.796 38.7764 528.369 37.5708 528.91L38.5932 531.191C37.35 531.748 36.0883 532.272 34.8094 532.76L33.9174 530.425C32.689 530.894 31.4441 531.33 30.1839 531.731L30.9425 534.113C29.6453 534.526 28.3324 534.904 27.0048 535.246L26.382 532.824C25.1105 533.152 23.8251 533.444 22.5268 533.701L23.012 536.153C21.6788 536.417 20.3325 536.645 18.9743 536.835L18.6278 534.359C17.3286 534.541 16.018 534.687 14.6969 534.797L14.9044 537.288Z" stroke="#A3A3A3" stroke-opacity="0.3" stroke-width="5" stroke-dasharray="4 4"/>
<path fill-rule="evenodd" clip-rule="evenodd" d="M0 365.011L-3.53105e-06 445.792L81.7784 445.792L81.7784 437.137C81.7784 397.303 49.0878 365.011 8.76197 365.011L0 365.011Z" fill="#A3A3A3" fill-opacity="0.2"/>
<path fill-rule="evenodd" clip-rule="evenodd" d="M176.522 365.011L176.522 445.792L94.7432 445.792L94.7432 437.137C94.7432 397.303 127.434 365.011 167.76 365.011L176.522 365.011Z" fill="#A3A3A3" fill-opacity="0.2"/>
<path fill-rule="evenodd" clip-rule="evenodd" d="M94.7432 535.549L94.7432 454.768L176.522 454.768L176.522 463.423C176.522 503.257 143.831 535.549 103.505 535.549L94.7432 535.549Z" fill="#A3A3A3" fill-opacity="0.2"/>
<path d="M109.611 264.035C108.266 264.145 106.911 264.219 105.546 264.256L105.478 261.757C104.823 261.775 104.165 261.784 103.505 261.784L101.315 261.784L101.315 264.284L97.2432 264.284L97.2432 262.264L96.9337 262.264L96.9337 261.784L94.7432 261.784L94.7432 258.225L97.2432 258.225L97.2432 254.186L94.7432 254.186L94.7432 250.147L97.2432 250.147L97.2432 246.108L94.7432 246.108L94.7432 242.069L97.2432 242.069L97.2432 238.03L94.7432 238.03L94.7432 233.991L97.2432 233.991L97.2432 229.952L94.7432 229.952L94.7432 225.913L97.2432 225.913L97.2432 221.874L94.7432 221.874L94.7432 217.835L97.2432 217.835L97.2432 213.796L94.7432 213.796L94.7432 209.757L97.2432 209.757L97.2432 205.718L94.7432 205.718L94.7432 201.678L97.2432 201.678L97.2432 197.639L94.7432 197.639L94.7432 193.6L97.2432 193.6L97.2432 189.561L94.7432 189.561L94.7432 186.003L96.7877 186.003L96.7877 185.522L97.2432 185.522L97.2432 183.503L100.877 183.503L100.877 186.003L104.966 186.003L104.966 183.503L109.054 183.503L109.054 186.003L113.143 186.003L113.143 183.503L117.232 183.503L117.232 186.003L121.321 186.003L121.321 183.503L125.41 183.503L125.41 186.003L129.499 186.003L129.499 183.503L133.588 183.503L133.588 186.003L137.677 186.003L137.677 183.503L141.766 183.503L141.766 186.003L145.855 186.003L145.855 183.503L149.944 183.503L149.944 186.003L154.033 186.003L154.033 183.503L158.121 183.503L158.121 186.003L162.21 186.003L162.21 183.503L166.299 183.503L166.299 186.003L170.388 186.003L170.388 183.503L174.022 183.503L174.022 185.667L174.477 185.667L174.477 186.003L176.522 186.003L176.522 189.994L174.022 189.994L174.022 192.158C174.022 192.817 174.012 193.474 173.994 194.128L176.493 194.199C176.455 195.563 176.378 196.918 176.264 198.263L173.773 198.051C173.661 199.363 173.513 200.664 173.329 201.954L175.804 202.307C175.612 203.656 175.382 204.993 175.115 206.318L172.664 205.824C172.405 207.112 172.109 208.388 171.778 209.649L174.197 210.283C173.852 211.601 173.47 212.904 173.052 214.191L170.674 213.419C170.269 214.669 169.829 215.902 169.355 217.12L171.685 218.026C171.192 219.294 170.663 220.544 170.101 221.777L167.827 220.738C167.282 221.932 166.704 223.107 166.094 224.264L168.305 225.43C167.671 226.632 167.004 227.814 166.305 228.976L164.163 227.686C163.487 228.809 162.78 229.912 162.042 230.994L164.107 232.402C163.342 233.524 162.546 234.624 161.72 235.7L159.737 234.178C158.939 235.217 158.112 236.234 157.257 237.227L159.151 238.859C158.266 239.887 157.351 240.891 156.41 241.868L154.609 240.134C153.7 241.078 152.765 241.996 151.804 242.888L153.505 244.72C152.511 245.643 151.491 246.539 150.445 247.407L148.849 245.483C147.841 246.319 146.809 247.128 145.754 247.909L147.241 249.919C146.152 250.725 145.038 251.502 143.903 252.248L142.53 250.159C141.436 250.878 140.321 251.568 139.185 252.227L140.44 254.389C139.269 255.069 138.076 255.717 136.864 256.333L135.731 254.105C134.565 254.697 133.38 255.259 132.178 255.788L133.185 258.076C131.946 258.621 130.688 259.134 129.414 259.611L128.536 257.271C127.312 257.73 126.072 258.156 124.817 258.548L125.563 260.934C124.272 261.338 122.965 261.707 121.644 262.041L121.032 259.617C119.766 259.936 118.487 260.222 117.195 260.473L117.672 262.927C116.346 263.185 115.007 263.407 113.657 263.592L113.316 261.116C112.024 261.293 110.721 261.436 109.407 261.544L109.611 264.035Z" stroke="#A3A3A3" stroke-opacity="0.3" stroke-width="5" stroke-dasharray="4 4"/>
<path fill-rule="evenodd" clip-rule="evenodd" d="M94.7432 274.257L94.7432 356.035L176.522 356.035L176.522 347.273C176.522 306.947 143.831 274.257 103.505 274.257L94.7432 274.257Z" fill="#A3A3A3" fill-opacity="0.2"/>
</g>
</svg>
